<?xml version="1.0" standalone="no"?>
<svg width="661" height="696" viewBox="0 0 661 696"
  xml:space="preserve"
  version="1.1"
  xmlns="http://www.w3.org/2000/svg">

<title>SVG graphic of net "C:\Users\nplant\Documents\work\mfienenBayesPython\Feb2014\bermPy_v3.neta" generated by PlantN at USGS using Netica 5.05 on Mar 14, 2014 at 12:05:38.</title>

<polygon points="92,250 100,250 96,261 " fill="#000000" stroke="none"/>
<polyline points="96,114 96,251 " stroke="#000000" stroke-width="1" fill="none"/>
<polygon points="235.605,215.848 229.663,210.491 240,205 " fill="#000000" stroke="none"/>
<polyline points="96,360 233,213 " stroke="#000000" stroke-width="1" fill="none"/>
<polygon points="227,118 227,110 238,114 " fill="#000000" stroke="none"/>
<polyline points="96,114 228,114 " stroke="#000000" stroke-width="1" fill="none"/>
<polygon points="227,364 227,356 238,360 " fill="#000000" stroke="none"/>
<polyline points="96,360 228,360 " stroke="#000000" stroke-width="1" fill="none"/>
<polygon points="236.561,270.705 242.4,265.237 247,276 " fill="#000000" stroke="none"/>
<polyline points="188,213 240,268 " stroke="#000000" stroke-width="1" fill="none"/>
<polygon points="320,265 328,265 324,276 " fill="#000000" stroke="none"/>
<polyline points="324,114 324,266 " stroke="#000000" stroke-width="1" fill="none"/>
<polygon points="320,457 328,457 324,468 " fill="#000000" stroke="none"/>
<polyline points="324,114 324,458 " stroke="#000000" stroke-width="1" fill="none"/>
<polygon points="320,457 328,457 324,468 " fill="#000000" stroke="none"/>
<polyline points="324,360 324,458 " stroke="#000000" stroke-width="1" fill="none"/>
<polygon points="220.447,486.936 226.165,481.341 231,492 " fill="#000000" stroke="none"/>
<polyline points="185,445 224,484 " stroke="#000000" stroke-width="1" fill="none"/>
<polygon points="259.598,459.851 266.794,456.358 268,468 " fill="#000000" stroke="none"/>
<polyline points="96,114 263,459 " stroke="#000000" stroke-width="1" fill="none"/>
<polygon points="459.783,217.658 464.549,211.233 471,221 " fill="#000000" stroke="none"/>
<polyline points="409,175 463,215 " stroke="#000000" stroke-width="1" fill="none"/>
<polygon points="461.759,322.184 459.303,314.57 471,315 " fill="#000000" stroke="none"/>
<polyline points="324,360 461,318 " stroke="#000000" stroke-width="1" fill="none"/>
<polygon points="460.755,307.661 459.512,299.758 471,302 " fill="#000000" stroke="none"/>
<polyline points="96,360 461,304 " stroke="#000000" stroke-width="1" fill="none"/>
<polygon points="459.296,252.924 462.078,245.423 471,253 " fill="#000000" stroke="none"/>
<polyline points="96,114 461,249 " stroke="#000000" stroke-width="1" fill="none"/>
<polygon points="479.203,397.072 472.978,392.047 483,386 " fill="#000000" stroke="none"/>
<polyline points="324,582 476,394 " stroke="#000000" stroke-width="1" fill="none"/>
<g id="windspd1">
<rect x="8" y="262" width="177" height="196" fill="#f8eed2" stroke-width="0"/>
<text x="42" y="278" font-family="Arial" font-size="12.5" font-weight="bold">Wind speed (m/s)</text>
<line x1="8" y1="283" x2="185" y2="283" stroke="black" stroke-width="1"/>
<text x="18" y="297" font-family="Arial" font-size="12.5">0 to 2</text>
<text x="18" y="312" font-family="Arial" font-size="12.5">2 to 4</text>
<text x="18" y="327" font-family="Arial" font-size="12.5">4 to 6</text>
<text x="18" y="342" font-family="Arial" font-size="12.5">6 to 8</text>
<text x="18" y="357" font-family="Arial" font-size="12.5">8 to 10</text>
<text x="18" y="372" font-family="Arial" font-size="12.5">10 to 15</text>
<text x="18" y="387" font-family="Arial" font-size="12.5">15 to 20</text>
<text x="18" y="402" font-family="Arial" font-size="12.5">20 to 25</text>
<text x="18" y="417" font-family="Arial" font-size="12.5">25 to 30</text>
<text x="18" y="432" font-family="Arial" font-size="12.5">30 to 100</text>
<text x="91" y="297" font-family="Arial" font-size="12.5">9.16</text>
<text x="91" y="312" font-family="Arial" font-size="12.5">21.2</text>
<text x="91" y="327" font-family="Arial" font-size="12.5">25.7</text>
<text x="91" y="342" font-family="Arial" font-size="12.5">21.7</text>
<text x="91" y="357" font-family="Arial" font-size="12.5">13.6</text>
<text x="91" y="372" font-family="Arial" font-size="12.5">8.38</text>
<text x="91" y="387" font-family="Arial" font-size="12.5">0.32</text>
<text x="91" y="402" font-family="Arial" font-size="12.5">.034</text>
<text x="91" y="417" font-family="Arial" font-size="12.5">.023</text>
<text x="93" y="432" font-family="Arial" font-size="12.5"> 0 +</text>
<rect x="120" y="283" width="65" height="154" fill="#c6bea8" stroke-width="0"/>
<line x1="171" y1="284" x2="171" y2="436" stroke="black" stroke-width="1" stroke-dasharray="3,3"/>
<rect x="120" y="290" width="19" height="7" fill="#000000" stroke-width="0"/>
<rect x="120" y="305" width="43" height="7" fill="#000000" stroke-width="0"/>
<rect x="120" y="320" width="52" height="7" fill="#000000" stroke-width="0"/>
<rect x="120" y="335" width="44" height="7" fill="#000000" stroke-width="0"/>
<rect x="120" y="350" width="27" height="7" fill="#000000" stroke-width="0"/>
<rect x="120" y="365" width="17" height="7" fill="#000000" stroke-width="0"/>
<rect x="120" y="380" width="1" height="7" fill="#000000" stroke-width="0"/>
<rect x="120" y="283" width="65" height="154" fill-opacity="0" stroke="#000000" stroke-width="1"/>
<line x1="8" y1="437" x2="185" y2="437" stroke="black" stroke-width="1"/>
<text x="67" y="451" font-family="Arial" font-size="12.5">5.87 &#177; 3.2</text>
<rect x="8" y="262" width="177" height="196" fill-opacity="0" stroke="#000000" stroke-width="1"/>
</g>
<g id="winddir1">
<rect x="4" y="1" width="184" height="226" fill="#f8eed2" stroke-width="0"/>
<text x="31" y="17" font-family="Arial" font-size="12.5" font-weight="bold">Wind direction (deg)</text>
<line x1="4" y1="22" x2="188" y2="22" stroke="black" stroke-width="1"/>
<text x="14" y="36" font-family="Arial" font-size="12.5">0 to 30</text>
<text x="14" y="51" font-family="Arial" font-size="12.5">30 to 60</text>
<text x="14" y="66" font-family="Arial" font-size="12.5">60 to 90</text>
<text x="14" y="81" font-family="Arial" font-size="12.5">90 to 120</text>
<text x="14" y="96" font-family="Arial" font-size="12.5">120 to 150</text>
<text x="14" y="111" font-family="Arial" font-size="12.5">150 to 180</text>
<text x="14" y="126" font-family="Arial" font-size="12.5">180 to 210</text>
<text x="14" y="141" font-family="Arial" font-size="12.5">210 to 240</text>
<text x="14" y="156" font-family="Arial" font-size="12.5">240 to 270</text>
<text x="14" y="171" font-family="Arial" font-size="12.5">270 to 300</text>
<text x="14" y="186" font-family="Arial" font-size="12.5">300 to 330</text>
<text x="14" y="201" font-family="Arial" font-size="12.5">330 to 360</text>
<text x="94" y="36" font-family="Arial" font-size="12.5">8.64</text>
<text x="94" y="51" font-family="Arial" font-size="12.5">8.72</text>
<text x="94" y="66" font-family="Arial" font-size="12.5">9.39</text>
<text x="94" y="81" font-family="Arial" font-size="12.5">12.3</text>
<text x="94" y="96" font-family="Arial" font-size="12.5">12.3</text>
<text x="94" y="111" font-family="Arial" font-size="12.5">9.11</text>
<text x="94" y="126" font-family="Arial" font-size="12.5">7.67</text>
<text x="94" y="141" font-family="Arial" font-size="12.5">6.52</text>
<text x="94" y="156" font-family="Arial" font-size="12.5">6.16</text>
<text x="94" y="171" font-family="Arial" font-size="12.5">5.58</text>
<text x="94" y="186" font-family="Arial" font-size="12.5">5.97</text>
<text x="94" y="201" font-family="Arial" font-size="12.5">7.65</text>
<rect x="123" y="22" width="65" height="184" fill="#c6bea8" stroke-width="0"/>
<rect x="123" y="29" width="34" height="7" fill="#000000" stroke-width="0"/>
<rect x="123" y="44" width="34" height="7" fill="#000000" stroke-width="0"/>
<rect x="123" y="59" width="37" height="7" fill="#000000" stroke-width="0"/>
<rect x="123" y="74" width="48" height="7" fill="#000000" stroke-width="0"/>
<rect x="123" y="89" width="48" height="7" fill="#000000" stroke-width="0"/>
<rect x="123" y="104" width="36" height="7" fill="#000000" stroke-width="0"/>
<rect x="123" y="119" width="30" height="7" fill="#000000" stroke-width="0"/>
<rect x="123" y="134" width="25" height="7" fill="#000000" stroke-width="0"/>
<rect x="123" y="149" width="24" height="7" fill="#000000" stroke-width="0"/>
<rect x="123" y="164" width="22" height="7" fill="#000000" stroke-width="0"/>
<rect x="123" y="179" width="23" height="7" fill="#000000" stroke-width="0"/>
<rect x="123" y="194" width="30" height="7" fill="#000000" stroke-width="0"/>
<rect x="123" y="22" width="65" height="184" fill-opacity="0" stroke="#000000" stroke-width="1"/>
<line x1="4" y1="206" x2="188" y2="206" stroke="black" stroke-width="1"/>
<text x="67" y="220" font-family="Arial" font-size="12.5">163 &#177; 100</text>
<rect x="4" y="1" width="184" height="226" fill-opacity="0" stroke="#000000" stroke-width="1"/>
</g>
<g id="wavehgt1">
<rect x="239" y="24" width="170" height="181" fill="#f8eed2" stroke-width="0"/>
<text x="272" y="40" font-family="Arial" font-size="12.5" font-weight="bold">Wave height (m)</text>
<line x1="239" y1="45" x2="409" y2="45" stroke="black" stroke-width="1"/>
<text x="249" y="59" font-family="Arial" font-size="12.5">0 to 1</text>
<text x="249" y="74" font-family="Arial" font-size="12.5">1 to 2</text>
<text x="249" y="89" font-family="Arial" font-size="12.5">2 to 3</text>
<text x="249" y="104" font-family="Arial" font-size="12.5">3 to 4</text>
<text x="249" y="119" font-family="Arial" font-size="12.5">4 to 6</text>
<text x="249" y="134" font-family="Arial" font-size="12.5">6 to 8</text>
<text x="249" y="149" font-family="Arial" font-size="12.5">8 to 10</text>
<text x="249" y="164" font-family="Arial" font-size="12.5">10 to 15</text>
<text x="249" y="179" font-family="Arial" font-size="12.5">15 to 20</text>
<text x="315" y="59" font-family="Arial" font-size="12.5">58.5</text>
<text x="315" y="74" font-family="Arial" font-size="12.5">32.3</text>
<text x="315" y="89" font-family="Arial" font-size="12.5">7.43</text>
<text x="315" y="104" font-family="Arial" font-size="12.5">1.28</text>
<text x="315" y="119" font-family="Arial" font-size="12.5">0.32</text>
<text x="315" y="134" font-family="Arial" font-size="12.5">.094</text>
<text x="315" y="149" font-family="Arial" font-size="12.5">.038</text>
<text x="315" y="164" font-family="Arial" font-size="12.5">.019</text>
<text x="315" y="179" font-family="Arial" font-size="12.5">.005</text>
<rect x="344" y="45" width="65" height="139" fill="#c6bea8" stroke-width="0"/>
<line x1="366" y1="46" x2="366" y2="183" stroke="black" stroke-width="1" stroke-dasharray="3,3"/>
<line x1="388" y1="46" x2="388" y2="183" stroke="black" stroke-width="1" stroke-dasharray="3,3"/>
<rect x="344" y="52" width="52" height="7" fill="#000000" stroke-width="0"/>
<rect x="344" y="67" width="29" height="7" fill="#000000" stroke-width="0"/>
<rect x="344" y="82" width="7" height="7" fill="#000000" stroke-width="0"/>
<rect x="344" y="97" width="1" height="7" fill="#000000" stroke-width="0"/>
<rect x="344" y="45" width="65" height="139" fill-opacity="0" stroke="#000000" stroke-width="1"/>
<line x1="239" y1="184" x2="409" y2="184" stroke="black" stroke-width="1"/>
<text x="291" y="198" font-family="Arial" font-size="12.5">1.04 &#177; 0.84</text>
<rect x="239" y="24" width="170" height="181" fill-opacity="0" stroke="#000000" stroke-width="1"/>
</g>
<g id="waveper1">
<rect x="239" y="277" width="170" height="166" fill="#f8eed2" stroke-width="0"/>
<text x="274" y="293" font-family="Arial" font-size="12.5" font-weight="bold">Wave period (s)</text>
<line x1="239" y1="298" x2="409" y2="298" stroke="black" stroke-width="1"/>
<text x="249" y="312" font-family="Arial" font-size="12.5">0 to 4</text>
<text x="249" y="327" font-family="Arial" font-size="12.5">4 to 6</text>
<text x="249" y="342" font-family="Arial" font-size="12.5">6 to 8</text>
<text x="249" y="357" font-family="Arial" font-size="12.5">8 to 10</text>
<text x="249" y="372" font-family="Arial" font-size="12.5">10 to 12</text>
<text x="249" y="387" font-family="Arial" font-size="12.5">12 to 14</text>
<text x="249" y="402" font-family="Arial" font-size="12.5">14 to 18</text>
<text x="249" y="417" font-family="Arial" font-size="12.5">18 to 30</text>
<text x="315" y="312" font-family="Arial" font-size="12.5">12.7</text>
<text x="315" y="327" font-family="Arial" font-size="12.5">49.5</text>
<text x="315" y="342" font-family="Arial" font-size="12.5">31.2</text>
<text x="315" y="357" font-family="Arial" font-size="12.5">5.51</text>
<text x="315" y="372" font-family="Arial" font-size="12.5">0.81</text>
<text x="315" y="387" font-family="Arial" font-size="12.5">0.22</text>
<text x="315" y="402" font-family="Arial" font-size="12.5">0.11</text>
<text x="315" y="417" font-family="Arial" font-size="12.5">.007</text>
<rect x="344" y="298" width="65" height="124" fill="#c6bea8" stroke-width="0"/>
<line x1="370" y1="299" x2="370" y2="421" stroke="black" stroke-width="1" stroke-dasharray="3,3"/>
<line x1="397" y1="299" x2="397" y2="421" stroke="black" stroke-width="1" stroke-dasharray="3,3"/>
<rect x="344" y="305" width="13" height="7" fill="#000000" stroke-width="0"/>
<rect x="344" y="320" width="52" height="7" fill="#000000" stroke-width="0"/>
<rect x="344" y="335" width="33" height="7" fill="#000000" stroke-width="0"/>
<rect x="344" y="350" width="6" height="7" fill="#000000" stroke-width="0"/>
<rect x="344" y="365" width="1" height="7" fill="#000000" stroke-width="0"/>
<rect x="344" y="298" width="65" height="124" fill-opacity="0" stroke="#000000" stroke-width="1"/>
<line x1="239" y1="422" x2="409" y2="422" stroke="black" stroke-width="1"/>
<text x="300" y="436" font-family="Arial" font-size="12.5">5.54 &#177; 2</text>
<rect x="239" y="277" width="170" height="166" fill-opacity="0" stroke="#000000" stroke-width="1"/>
</g>
<g id="wavedir1">
<rect x="232" y="469" width="184" height="226" fill="#f8eed2" stroke-width="0"/>
<text x="256" y="485" font-family="Arial" font-size="12.5" font-weight="bold">Wave direction (deg) </text>
<line x1="232" y1="490" x2="416" y2="490" stroke="black" stroke-width="1"/>
<text x="242" y="504" font-family="Arial" font-size="12.5">0 to 30</text>
<text x="242" y="519" font-family="Arial" font-size="12.5">30 to 60</text>
<text x="242" y="534" font-family="Arial" font-size="12.5">60 to 90</text>
<text x="242" y="549" font-family="Arial" font-size="12.5">90 to 120</text>
<text x="242" y="564" font-family="Arial" font-size="12.5">120 to 150</text>
<text x="242" y="579" font-family="Arial" font-size="12.5">150 to 180</text>
<text x="242" y="594" font-family="Arial" font-size="12.5">180 to 210</text>
<text x="242" y="609" font-family="Arial" font-size="12.5">210 to 240</text>
<text x="242" y="624" font-family="Arial" font-size="12.5">240 to 270</text>
<text x="242" y="639" font-family="Arial" font-size="12.5">270 to 300</text>
<text x="242" y="654" font-family="Arial" font-size="12.5">300 to 330</text>
<text x="242" y="669" font-family="Arial" font-size="12.5">330 to 360</text>
<text x="322" y="504" font-family="Arial" font-size="12.5">5.20</text>
<text x="322" y="519" font-family="Arial" font-size="12.5">6.69</text>
<text x="322" y="534" font-family="Arial" font-size="12.5">8.33</text>
<text x="322" y="549" font-family="Arial" font-size="12.5">13.4</text>
<text x="322" y="564" font-family="Arial" font-size="12.5">18.0</text>
<text x="322" y="579" font-family="Arial" font-size="12.5">20.4</text>
<text x="322" y="594" font-family="Arial" font-size="12.5">9.12</text>
<text x="322" y="609" font-family="Arial" font-size="12.5">5.47</text>
<text x="322" y="624" font-family="Arial" font-size="12.5">2.81</text>
<text x="322" y="639" font-family="Arial" font-size="12.5">2.35</text>
<text x="322" y="654" font-family="Arial" font-size="12.5">3.11</text>
<text x="322" y="669" font-family="Arial" font-size="12.5">5.16</text>
<rect x="351" y="490" width="65" height="184" fill="#c6bea8" stroke-width="0"/>
<line x1="415" y1="491" x2="415" y2="673" stroke="black" stroke-width="1" stroke-dasharray="3,3"/>
<rect x="351" y="497" width="13" height="7" fill="#000000" stroke-width="0"/>
<rect x="351" y="512" width="17" height="7" fill="#000000" stroke-width="0"/>
<rect x="351" y="527" width="21" height="7" fill="#000000" stroke-width="0"/>
<rect x="351" y="542" width="34" height="7" fill="#000000" stroke-width="0"/>
<rect x="351" y="557" width="46" height="7" fill="#000000" stroke-width="0"/>
<rect x="351" y="572" width="52" height="7" fill="#000000" stroke-width="0"/>
<rect x="351" y="587" width="23" height="7" fill="#000000" stroke-width="0"/>
<rect x="351" y="602" width="14" height="7" fill="#000000" stroke-width="0"/>
<rect x="351" y="617" width="7" height="7" fill="#000000" stroke-width="0"/>
<rect x="351" y="632" width="6" height="7" fill="#000000" stroke-width="0"/>
<rect x="351" y="647" width="8" height="7" fill="#000000" stroke-width="0"/>
<rect x="351" y="662" width="13" height="7" fill="#000000" stroke-width="0"/>
<rect x="351" y="490" width="65" height="184" fill-opacity="0" stroke="#000000" stroke-width="1"/>
<line x1="232" y1="674" x2="416" y2="674" stroke="black" stroke-width="1"/>
<text x="299" y="688" font-family="Arial" font-size="12.5">154 &#177; 81</text>
<rect x="232" y="469" width="184" height="226" fill-opacity="0" stroke="#000000" stroke-width="1"/>
</g>
<g id="wavehgt2">
<rect x="472" y="190" width="185" height="196" fill="#f8eed2" stroke-width="0"/>
<text x="512" y="206" font-family="Arial" font-size="12.5" font-weight="bold">Wave height (m)</text>
<line x1="472" y1="211" x2="657" y2="211" stroke="black" stroke-width="1"/>
<text x="482" y="225" font-family="Arial" font-size="12.5">0 to 0.25</text>
<text x="482" y="240" font-family="Arial" font-size="12.5">0.25 to 0.5</text>
<text x="482" y="255" font-family="Arial" font-size="12.5">0.5 to 0.75</text>
<text x="482" y="270" font-family="Arial" font-size="12.5">0.75 to 1</text>
<text x="482" y="285" font-family="Arial" font-size="12.5">1 to 1.5</text>
<text x="482" y="300" font-family="Arial" font-size="12.5">1.5 to 2</text>
<text x="482" y="315" font-family="Arial" font-size="12.5">2 to 3</text>
<text x="482" y="330" font-family="Arial" font-size="12.5">3 to 4</text>
<text x="482" y="345" font-family="Arial" font-size="12.5">4 to 8</text>
<text x="482" y="360" font-family="Arial" font-size="12.5">8 to 10</text>
<text x="563" y="225" font-family="Arial" font-size="12.5">11.4</text>
<text x="563" y="240" font-family="Arial" font-size="12.5">31.5</text>
<text x="563" y="255" font-family="Arial" font-size="12.5">23.9</text>
<text x="563" y="270" font-family="Arial" font-size="12.5">15.5</text>
<text x="563" y="285" font-family="Arial" font-size="12.5">13.1</text>
<text x="563" y="300" font-family="Arial" font-size="12.5">2.86</text>
<text x="563" y="315" font-family="Arial" font-size="12.5">1.07</text>
<text x="563" y="330" font-family="Arial" font-size="12.5">0.34</text>
<text x="563" y="345" font-family="Arial" font-size="12.5">0.21</text>
<text x="563" y="360" font-family="Arial" font-size="12.5">0.18</text>
<rect x="592" y="211" width="65" height="154" fill="#c6bea8" stroke-width="0"/>
<line x1="633" y1="212" x2="633" y2="364" stroke="black" stroke-width="1" stroke-dasharray="3,3"/>
<rect x="592" y="218" width="19" height="7" fill="#000000" stroke-width="0"/>
<rect x="592" y="233" width="52" height="7" fill="#000000" stroke-width="0"/>
<rect x="592" y="248" width="40" height="7" fill="#000000" stroke-width="0"/>
<rect x="592" y="263" width="26" height="7" fill="#000000" stroke-width="0"/>
<rect x="592" y="278" width="22" height="7" fill="#000000" stroke-width="0"/>
<rect x="592" y="293" width="5" height="7" fill="#000000" stroke-width="0"/>
<rect x="592" y="308" width="2" height="7" fill="#000000" stroke-width="0"/>
<rect x="592" y="323" width="1" height="7" fill="#000000" stroke-width="0"/>
<rect x="592" y="211" width="65" height="154" fill-opacity="0" stroke="#000000" stroke-width="1"/>
<line x1="472" y1="365" x2="657" y2="365" stroke="black" stroke-width="1"/>
<text x="528" y="379" font-family="Arial" font-size="12.5">0.699 &#177; 0.64</text>
<rect x="472" y="190" width="185" height="196" fill-opacity="0" stroke="#000000" stroke-width="1"/>
</g>

</svg>

